<?xml version="1.0" encoding="utf-8"?>
<!-- Generator: Adobe Illustrator 23.0.2, SVG Export Plug-In . SVG Version: 6.00 Build 0)  -->
<svg version="1.1" id="Layer_6" xmlns="http://www.w3.org/2000/svg" xmlns:xlink="http://www.w3.org/1999/xlink" x="0px" y="0px"
	 viewBox="0 0 256 256" style="enable-background:new 0 0 256 256;" xml:space="preserve">
<style type="text/css">
	.st0{fill:#F955B3;}
	.st1{fill:#4EA1E5;}
	.st2{fill:#FF8C36;}
	.st3{fill:#969696;}
</style>
<path class="st0" d="M156.1,41.2l-0.1,0c-6.1-8.9-16.3-14.7-27.9-14.7c-12.7,0-23.7,7-29.5,17.3l0,0L69.4,94.2h39.1L128,60.3
	l19.5,33.9h39.1L156.1,41.2z"/>
<path class="st1" d="M88.9,128l-19.5,33.9h78.2l19.5,33.9c0,0-98.6,0-98.7,0c-18.2-0.5-32.8-15.5-32.8-33.8c0-5.9,4.2-16.4,4.2-16.4
	l29.6-51.3L88.9,128z"/>
<path class="st2" d="M216.1,145.2l-29.5-51L167.1,128l36.5,63.2c10.1-5.9,16.9-16.8,16.9-29.3C220.5,155.8,218.9,150.1,216.1,145.2z
	"/>
<path class="st3" d="M128,228.3l-9-15.6H98.7l18.6,32.1l0,0c2.2,3.6,6.2,5.9,10.7,5.9c4.5,0,8.4-2.3,10.6-5.8l0,0l18.6-32.3H137
	L128,228.3z"/>
<path class="st3" d="M234.3,66.7c-2.2-3.9-6.2-6.1-10.3-6.3l0,0l-37.3,0l9.8,16.9H216l-9.8,16.9l9.8,16.9l18.6-32.1l0,0
	C236.4,75.2,236.5,70.6,234.3,66.7z"/>
<path class="st3" d="M40.5,77.5h18.9l9.9-17.2l-37.3,0l0,0c-4.1,0.2-8.1,2.5-10.3,6.3c-2.3,3.9-2.2,8.5-0.2,12.2l0,0L40,111.1
	L50,93.9L40.5,77.5z"/>
<path class="st3" d="M109.7,138.6c2.2,3.9,6.2,6.1,10.3,6.3l15.8,0c4.2-0.2,8.2-2.4,10.5-6.3c2.2-3.9,2.2-8.4,0.3-12.1l-7.9-13.7
	l0,0c-2.2-3.6-6.2-5.9-10.7-5.9c-4.5,0-8.4,2.3-10.6,5.8l-0.1,0l-7.9,13.7l0,0C107.5,130.1,107.4,134.7,109.7,138.6z"/>
</svg>
